<mxfile host="app.diagrams.net" modified="2023-11-20T14:03:33.453Z" agent="Mozilla/5.0 (Windows NT 10.0; Win64; x64) AppleWebKit/537.36 (KHTML, like Gecko) Chrome/119.0.0.0 Safari/537.36 Edg/119.0.0.0" etag="8re2VaV4F5h9DyyfaLWm" version="22.1.3" type="github">
  <diagram name="Sida-1" id="Rz8QS9qmlJheEJS7Ynxt">
    <mxGraphModel dx="835" dy="526" grid="1" gridSize="10" guides="1" tooltips="1" connect="1" arrows="1" fold="1" page="1" pageScale="1" pageWidth="827" pageHeight="1169" math="0" shadow="0">
      <root>
        <mxCell id="0" />
        <mxCell id="1" parent="0" />
        <mxCell id="0sg5VuPykkX8TWpJPUWO-9" value="Square" style="swimlane;fontStyle=0;childLayout=stackLayout;horizontal=1;startSize=30;horizontalStack=0;resizeParent=1;resizeParentMax=0;resizeLast=0;collapsible=1;marginBottom=0;whiteSpace=wrap;html=1;" vertex="1" parent="1">
          <mxGeometry x="70" y="400" width="140" height="60" as="geometry" />
        </mxCell>
        <mxCell id="0sg5VuPykkX8TWpJPUWO-10" value="+paint(Graphics g): void" style="text;strokeColor=none;fillColor=none;align=left;verticalAlign=middle;spacingLeft=4;spacingRight=4;overflow=hidden;points=[[0,0.5],[1,0.5]];portConstraint=eastwest;rotatable=0;whiteSpace=wrap;html=1;" vertex="1" parent="0sg5VuPykkX8TWpJPUWO-9">
          <mxGeometry y="30" width="140" height="30" as="geometry" />
        </mxCell>
        <mxCell id="0sg5VuPykkX8TWpJPUWO-13" value="Triangle" style="swimlane;fontStyle=0;childLayout=stackLayout;horizontal=1;startSize=30;horizontalStack=0;resizeParent=1;resizeParentMax=0;resizeLast=0;collapsible=1;marginBottom=0;whiteSpace=wrap;html=1;" vertex="1" parent="1">
          <mxGeometry x="400" y="400" width="140" height="60" as="geometry" />
        </mxCell>
        <mxCell id="0sg5VuPykkX8TWpJPUWO-14" value="+paint(Graphics g): void" style="text;strokeColor=none;fillColor=none;align=left;verticalAlign=middle;spacingLeft=4;spacingRight=4;overflow=hidden;points=[[0,0.5],[1,0.5]];portConstraint=eastwest;rotatable=0;whiteSpace=wrap;html=1;" vertex="1" parent="0sg5VuPykkX8TWpJPUWO-13">
          <mxGeometry y="30" width="140" height="30" as="geometry" />
        </mxCell>
        <mxCell id="0sg5VuPykkX8TWpJPUWO-17" value="Rectangle&lt;br&gt;" style="swimlane;fontStyle=0;childLayout=stackLayout;horizontal=1;startSize=30;horizontalStack=0;resizeParent=1;resizeParentMax=0;resizeLast=0;collapsible=1;marginBottom=0;whiteSpace=wrap;html=1;" vertex="1" parent="1">
          <mxGeometry x="230" y="400" width="140" height="60" as="geometry" />
        </mxCell>
        <mxCell id="0sg5VuPykkX8TWpJPUWO-18" value="+paint(Graphics g): void" style="text;strokeColor=none;fillColor=none;align=left;verticalAlign=middle;spacingLeft=4;spacingRight=4;overflow=hidden;points=[[0,0.5],[1,0.5]];portConstraint=eastwest;rotatable=0;whiteSpace=wrap;html=1;" vertex="1" parent="0sg5VuPykkX8TWpJPUWO-17">
          <mxGeometry y="30" width="140" height="30" as="geometry" />
        </mxCell>
        <mxCell id="0sg5VuPykkX8TWpJPUWO-27" value="&lt;i&gt;Polygon {abstract}&lt;/i&gt;" style="swimlane;fontStyle=1;align=center;verticalAlign=top;childLayout=stackLayout;horizontal=1;startSize=26;horizontalStack=0;resizeParent=1;resizeParentMax=0;resizeLast=0;collapsible=1;marginBottom=0;whiteSpace=wrap;html=1;" vertex="1" parent="1">
          <mxGeometry x="140" y="110" width="160" height="170" as="geometry" />
        </mxCell>
        <mxCell id="0sg5VuPykkX8TWpJPUWO-28" value="+ centerPoint: Point&lt;br&gt;&lt;br&gt;+ drawer: DrawPolygon" style="text;strokeColor=none;fillColor=none;align=left;verticalAlign=top;spacingLeft=4;spacingRight=4;overflow=hidden;rotatable=0;points=[[0,0.5],[1,0.5]];portConstraint=eastwest;whiteSpace=wrap;html=1;" vertex="1" parent="0sg5VuPykkX8TWpJPUWO-27">
          <mxGeometry y="26" width="160" height="54" as="geometry" />
        </mxCell>
        <mxCell id="0sg5VuPykkX8TWpJPUWO-29" value="" style="line;strokeWidth=1;fillColor=none;align=left;verticalAlign=middle;spacingTop=-1;spacingLeft=3;spacingRight=3;rotatable=0;labelPosition=right;points=[];portConstraint=eastwest;strokeColor=inherit;" vertex="1" parent="0sg5VuPykkX8TWpJPUWO-27">
          <mxGeometry y="80" width="160" height="10" as="geometry" />
        </mxCell>
        <mxCell id="0sg5VuPykkX8TWpJPUWO-30" value="+ updateCenter(): void&lt;br&gt;&lt;br&gt;+&lt;i&gt;paint(Graphics g): void&lt;br&gt;&lt;br&gt;+ &lt;/i&gt;DrawPolygon()&lt;br&gt;&lt;br&gt;" style="text;strokeColor=none;fillColor=none;align=left;verticalAlign=top;spacingLeft=4;spacingRight=4;overflow=hidden;rotatable=0;points=[[0,0.5],[1,0.5]];portConstraint=eastwest;whiteSpace=wrap;html=1;" vertex="1" parent="0sg5VuPykkX8TWpJPUWO-27">
          <mxGeometry y="90" width="160" height="80" as="geometry" />
        </mxCell>
        <mxCell id="0sg5VuPykkX8TWpJPUWO-31" value="&lt;p style=&quot;margin:0px;margin-top:4px;text-align:center;&quot;&gt;&lt;b&gt;DrawPolygons&lt;/b&gt;&lt;/p&gt;&lt;hr size=&quot;1&quot;&gt;&lt;p style=&quot;margin:0px;margin-left:4px;&quot;&gt;+ polygons: ArrayList&amp;lt;Polygons&amp;gt;&lt;/p&gt;&lt;p style=&quot;margin:0px;margin-left:4px;&quot;&gt;&lt;br&gt;&lt;/p&gt;&lt;p style=&quot;margin:0px;margin-left:4px;&quot;&gt;&lt;br&gt;&lt;/p&gt;&lt;p style=&quot;margin:0px;margin-left:4px;&quot;&gt;&lt;br&gt;&lt;/p&gt;&lt;hr size=&quot;1&quot;&gt;&lt;p style=&quot;margin:0px;margin-left:4px;&quot;&gt;+ update() : void&lt;/p&gt;&lt;p style=&quot;margin:0px;margin-left:4px;&quot;&gt;&lt;br&gt;&lt;/p&gt;&lt;p style=&quot;margin:0px;margin-left:4px;&quot;&gt;+ paint(Graphics g) : void&lt;/p&gt;" style="verticalAlign=top;align=left;overflow=fill;fontSize=12;fontFamily=Helvetica;html=1;whiteSpace=wrap;" vertex="1" parent="1">
          <mxGeometry x="360" y="110" width="180" height="170" as="geometry" />
        </mxCell>
        <mxCell id="0sg5VuPykkX8TWpJPUWO-35" value="Extends" style="endArrow=block;endFill=0;html=1;rounded=0;" edge="1" parent="1" source="0sg5VuPykkX8TWpJPUWO-9" target="0sg5VuPykkX8TWpJPUWO-30">
          <mxGeometry x="0.4" y="-70" width="160" relative="1" as="geometry">
            <mxPoint x="170" y="250" as="sourcePoint" />
            <mxPoint x="330" y="250" as="targetPoint" />
            <Array as="points">
              <mxPoint x="140" y="350" />
              <mxPoint x="220" y="350" />
            </Array>
            <mxPoint as="offset" />
          </mxGeometry>
        </mxCell>
        <mxCell id="0sg5VuPykkX8TWpJPUWO-38" value="" style="endArrow=block;endFill=0;html=1;rounded=0;" edge="1" parent="1" source="0sg5VuPykkX8TWpJPUWO-17" target="0sg5VuPykkX8TWpJPUWO-27">
          <mxGeometry x="-0.4" y="-30" width="160" relative="1" as="geometry">
            <mxPoint x="430" y="210" as="sourcePoint" />
            <mxPoint x="590" y="210" as="targetPoint" />
            <Array as="points">
              <mxPoint x="300" y="350" />
              <mxPoint x="220" y="350" />
            </Array>
            <mxPoint as="offset" />
          </mxGeometry>
        </mxCell>
        <mxCell id="0sg5VuPykkX8TWpJPUWO-40" value="" style="endArrow=block;endFill=0;html=1;rounded=0;" edge="1" parent="1" source="0sg5VuPykkX8TWpJPUWO-13" target="0sg5VuPykkX8TWpJPUWO-30">
          <mxGeometry x="-0.027" y="-40" width="160" relative="1" as="geometry">
            <mxPoint x="400" y="210" as="sourcePoint" />
            <mxPoint x="560" y="210" as="targetPoint" />
            <Array as="points">
              <mxPoint x="470" y="350" />
              <mxPoint x="220" y="350" />
            </Array>
            <mxPoint as="offset" />
          </mxGeometry>
        </mxCell>
        <mxCell id="0sg5VuPykkX8TWpJPUWO-52" value="&lt;p style=&quot;margin:0px;margin-top:4px;text-align:center;&quot;&gt;&lt;b&gt;Graphics&lt;/b&gt;&lt;/p&gt;&lt;div style=&quot;height:2px;&quot;&gt;&lt;/div&gt;&lt;hr size=&quot;1&quot;&gt;&lt;div style=&quot;height:2px;&quot;&gt;&lt;/div&gt;" style="verticalAlign=top;align=left;overflow=fill;fontSize=12;fontFamily=Helvetica;html=1;whiteSpace=wrap;" vertex="1" parent="1">
          <mxGeometry x="150" y="10" width="80" height="50" as="geometry" />
        </mxCell>
        <mxCell id="0sg5VuPykkX8TWpJPUWO-53" style="edgeStyle=orthogonalEdgeStyle;shape=flexArrow;rounded=0;orthogonalLoop=1;jettySize=auto;html=1;exitX=0.5;exitY=1;exitDx=0;exitDy=0;" edge="1" parent="1" source="0sg5VuPykkX8TWpJPUWO-52" target="0sg5VuPykkX8TWpJPUWO-52">
          <mxGeometry relative="1" as="geometry" />
        </mxCell>
        <mxCell id="0sg5VuPykkX8TWpJPUWO-55" value="&lt;p style=&quot;margin:0px;margin-top:4px;text-align:center;&quot;&gt;&lt;b&gt;JComponent&lt;/b&gt;&lt;/p&gt;&lt;div style=&quot;height:2px;&quot;&gt;&lt;/div&gt;&lt;hr size=&quot;1&quot;&gt;&lt;div style=&quot;height:2px;&quot;&gt;&lt;/div&gt;" style="verticalAlign=top;align=left;overflow=fill;fontSize=12;fontFamily=Helvetica;html=1;whiteSpace=wrap;" vertex="1" parent="1">
          <mxGeometry x="270" y="10" width="90" height="50" as="geometry" />
        </mxCell>
        <mxCell id="0sg5VuPykkX8TWpJPUWO-56" value="&lt;p style=&quot;margin:0px;margin-top:4px;text-align:center;&quot;&gt;&lt;b&gt;JFrame&lt;/b&gt;&lt;/p&gt;&lt;hr size=&quot;1&quot;&gt;&lt;div style=&quot;height:2px;&quot;&gt;&lt;br&gt;&lt;/div&gt;" style="verticalAlign=top;align=left;overflow=fill;fontSize=12;fontFamily=Helvetica;html=1;whiteSpace=wrap;" vertex="1" parent="1">
          <mxGeometry x="410" y="10" width="80" height="50" as="geometry" />
        </mxCell>
        <mxCell id="0sg5VuPykkX8TWpJPUWO-58" value="&lt;p style=&quot;margin:0px;margin-top:4px;text-align:center;&quot;&gt;&lt;b&gt;ArrayList&lt;/b&gt;&lt;/p&gt;&lt;hr size=&quot;1&quot;&gt;&lt;div style=&quot;height:2px;&quot;&gt;&lt;/div&gt;" style="verticalAlign=top;align=left;overflow=fill;fontSize=12;fontFamily=Helvetica;html=1;whiteSpace=wrap;" vertex="1" parent="1">
          <mxGeometry x="510" y="12.5" width="80" height="45" as="geometry" />
        </mxCell>
        <mxCell id="0sg5VuPykkX8TWpJPUWO-59" value="" style="endArrow=none;endFill=0;html=1;rounded=0;exitX=0.5;exitY=1;exitDx=0;exitDy=0;entryX=0.581;entryY=0.001;entryDx=0;entryDy=0;entryPerimeter=0;startArrow=block;startFill=0;" edge="1" parent="1" source="0sg5VuPykkX8TWpJPUWO-55" target="0sg5VuPykkX8TWpJPUWO-27">
          <mxGeometry x="0.4375" y="-30" width="160" relative="1" as="geometry">
            <mxPoint x="254" y="80" as="sourcePoint" />
            <mxPoint x="330" y="100" as="targetPoint" />
            <Array as="points">
              <mxPoint x="315" y="90" />
              <mxPoint x="233" y="90" />
            </Array>
            <mxPoint as="offset" />
          </mxGeometry>
        </mxCell>
        <mxCell id="0sg5VuPykkX8TWpJPUWO-60" value="Extends" style="endArrow=none;endFill=0;html=1;rounded=0;entryX=0.324;entryY=-0.003;entryDx=0;entryDy=0;entryPerimeter=0;startArrow=block;startFill=0;" edge="1" parent="1" source="0sg5VuPykkX8TWpJPUWO-55" target="0sg5VuPykkX8TWpJPUWO-31">
          <mxGeometry x="-0.2787" y="10" width="160" relative="1" as="geometry">
            <mxPoint x="330" y="60" as="sourcePoint" />
            <mxPoint x="243" y="120" as="targetPoint" />
            <Array as="points">
              <mxPoint x="315" y="90" />
              <mxPoint x="418" y="90" />
            </Array>
            <mxPoint as="offset" />
          </mxGeometry>
        </mxCell>
        <mxCell id="0sg5VuPykkX8TWpJPUWO-61" value="" style="endArrow=open;endFill=0;html=1;rounded=0;" edge="1" parent="1" source="0sg5VuPykkX8TWpJPUWO-31" target="0sg5VuPykkX8TWpJPUWO-56">
          <mxGeometry width="160" relative="1" as="geometry">
            <mxPoint x="470" y="90" as="sourcePoint" />
            <mxPoint x="630" y="90" as="targetPoint" />
          </mxGeometry>
        </mxCell>
        <mxCell id="0sg5VuPykkX8TWpJPUWO-64" value="" style="endArrow=none;endFill=0;html=1;rounded=0;startArrow=open;startFill=0;" edge="1" parent="1">
          <mxGeometry width="160" relative="1" as="geometry">
            <mxPoint x="300" y="160" as="sourcePoint" />
            <mxPoint x="360" y="160" as="targetPoint" />
          </mxGeometry>
        </mxCell>
        <mxCell id="0sg5VuPykkX8TWpJPUWO-67" value="" style="endArrow=open;endSize=12;dashed=1;html=1;rounded=0;" edge="1" parent="1" target="0sg5VuPykkX8TWpJPUWO-52">
          <mxGeometry x="0.039" y="50" width="160" relative="1" as="geometry">
            <mxPoint x="450" y="370" as="sourcePoint" />
            <mxPoint x="200" y="90" as="targetPoint" />
            <Array as="points">
              <mxPoint x="90" y="370" />
              <mxPoint x="90" y="90" />
              <mxPoint x="190" y="90" />
              <mxPoint x="190" y="80" />
            </Array>
            <mxPoint as="offset" />
          </mxGeometry>
        </mxCell>
        <mxCell id="0sg5VuPykkX8TWpJPUWO-68" value="" style="endArrow=open;endFill=0;html=1;rounded=0;startArrow=none;startFill=0;" edge="1" parent="1">
          <mxGeometry width="160" relative="1" as="geometry">
            <mxPoint x="300" y="180" as="sourcePoint" />
            <mxPoint x="360" y="180" as="targetPoint" />
            <Array as="points">
              <mxPoint x="330" y="180" />
            </Array>
          </mxGeometry>
        </mxCell>
        <mxCell id="0sg5VuPykkX8TWpJPUWO-70" value="" style="endArrow=open;endFill=0;html=1;rounded=0;exitX=0.613;exitY=0.001;exitDx=0;exitDy=0;exitPerimeter=0;" edge="1" parent="1" source="0sg5VuPykkX8TWpJPUWO-31" target="0sg5VuPykkX8TWpJPUWO-58">
          <mxGeometry width="160" relative="1" as="geometry">
            <mxPoint x="460" y="120" as="sourcePoint" />
            <mxPoint x="580" y="80" as="targetPoint" />
            <Array as="points">
              <mxPoint x="470" y="90" />
              <mxPoint x="550" y="90" />
            </Array>
          </mxGeometry>
        </mxCell>
        <mxCell id="0sg5VuPykkX8TWpJPUWO-71" value="" style="endArrow=open;endSize=12;dashed=1;html=1;rounded=0;" edge="1" parent="1" target="0sg5VuPykkX8TWpJPUWO-52">
          <mxGeometry x="-0.4167" y="30" width="160" relative="1" as="geometry">
            <mxPoint x="390" y="100" as="sourcePoint" />
            <mxPoint x="440" y="100" as="targetPoint" />
            <Array as="points">
              <mxPoint x="190" y="100" />
            </Array>
            <mxPoint as="offset" />
          </mxGeometry>
        </mxCell>
        <mxCell id="0sg5VuPykkX8TWpJPUWO-72" value="&lt;p style=&quot;margin:0px;margin-top:4px;text-align:center;&quot;&gt;Point&lt;/p&gt;&lt;hr size=&quot;1&quot;&gt;&lt;div style=&quot;height:2px;&quot;&gt;&lt;/div&gt;&lt;div style=&quot;height:2px;&quot;&gt;&lt;/div&gt;" style="verticalAlign=top;align=left;overflow=fill;fontSize=12;fontFamily=Helvetica;html=1;whiteSpace=wrap;" vertex="1" parent="1">
          <mxGeometry x="40" y="10" width="60" height="50" as="geometry" />
        </mxCell>
        <mxCell id="0sg5VuPykkX8TWpJPUWO-74" value="" style="endArrow=open;endFill=0;html=1;rounded=0;exitX=0;exitY=0.118;exitDx=0;exitDy=0;exitPerimeter=0;" edge="1" parent="1" source="0sg5VuPykkX8TWpJPUWO-27">
          <mxGeometry width="160" relative="1" as="geometry">
            <mxPoint x="-10" y="112" as="sourcePoint" />
            <mxPoint x="70" y="60" as="targetPoint" />
            <Array as="points">
              <mxPoint x="70" y="130" />
              <mxPoint x="70" y="92" />
            </Array>
          </mxGeometry>
        </mxCell>
      </root>
    </mxGraphModel>
  </diagram>
</mxfile>
